<?xml version="1.0" encoding="iso-8859-1"?>
<!-- Uploaded to: SVG Repo, www.svgrepo.com, Generator: SVG Repo Mixer Tools -->
<svg fill="#000000" version="1.1" id="Layer_1" xmlns="http://www.w3.org/2000/svg" xmlns:xlink="http://www.w3.org/1999/xlink" 
	 viewBox="0 0 496 496" xml:space="preserve">
<g>
	<g>
		<g>
			<polygon points="360,168 480,168 480,480 16,480 16,168 312,168 312,152 0,152 0,496 496,496 496,152 360,152 			"/>
			<path d="M384,0v16h48v16h-16v16h-16V32H272v16h-16V32h-16V16h48V0H176v16h48v16h-16v24c0,13.232,10.768,24,24,24
				c10.416,0,19.216-6.712,22.528-16H272v1.888l11.296,22.584C272.304,90.672,264,100.376,264,112v24h16v-24c0-4.416,3.584-8,8-8
				h3.056H296h80h4.944H384c4.416,0,8,3.584,8,8v24h16v-24c0-11.624-8.304-21.328-19.296-23.528L400,65.888V64h17.472
				c3.312,9.288,12.112,16,22.528,16c13.232,0,24-10.768,24-24V32h-16V16h48V0H384z M240,56c0,4.416-3.584,8-8,8s-8-3.584-8-8v-8h16
				V56z M384,62.112L371.056,88h-70.112L288,62.112V48h96V62.112z M448,56c0,4.416-3.584,8-8,8c-4.416,0-8-3.584-8-8v-8h16V56z"/>
			<rect x="328" y="120" width="16" height="16"/>
			<rect x="328" y="184" width="16" height="16"/>
			<rect x="328" y="216" width="16" height="16"/>
			<path d="M328,264.552c-28.896,3.624-51.816,26.552-55.448,55.448H256v16h16.552c3.624,28.896,26.552,51.816,55.448,55.448V408h16
				v-16.552c28.896-3.624,51.816-26.552,55.448-55.448H416v-16h-16.552c-3.624-28.896-26.552-51.816-55.448-55.448V248h-16V264.552z
				 M344,280.72c20.056,3.392,35.888,19.224,39.28,39.28H368v16h15.28c-3.384,20.056-19.224,35.888-39.28,39.28V360h-16v15.28
				c-20.056-3.384-35.888-19.224-39.28-39.28H304v-16h-15.28c3.384-20.056,19.224-35.888,39.28-39.28V296h16V280.72z"/>
			<rect x="328" y="320" width="16" height="16"/>
			<rect x="328" y="152" width="16" height="16"/>
			<path d="M312,200v-16H32v280h432V184H360v16h88v64h-48v16h48v96h-48v16h48v56H208v-56h64v-16h-80v72H96v-72H48v-96h48v-80h96v80
				h80v-16h-64v-64H312z M80,392v56H48v-56H80z M80,264H48v-64h32V264z"/>
		</g>
	</g>
</g>
</svg>